<svg width="38" height="38" viewBox="0 0 38 38" fill="none" xmlns="http://www.w3.org/2000/svg">
<path d="M26.3041 20.2966L37.821 18.7408L26.7306 17.3264L36.5414 11.8809L25.2377 14.639L32.2758 5.44543L23.3893 12.2345L26.4463 1.55584L20.4745 11.4566L18.9105 1.64683e-07L17.4176 11.0323L12.0146 1.27296L14.7872 12.5174L5.54519 5.44543L12.37 14.3561L1.63512 11.2445L11.588 17.2557L-1.63205e-07 18.7408L11.1615 20.2259L1.35075 25.6713L12.6544 22.8425L5.54519 32.0361L14.5028 25.247L11.3747 35.9964L17.4176 26.0957L18.9105 37.5523L20.4034 26.52L25.8775 36.2793L23.0338 25.0349L32.2758 32.0361L25.451 23.1961L36.257 26.2371L26.3041 20.2966Z" fill="#8BC1D0"/>
</svg>
