<svg width="7" height="87" viewBox="0 0 7 87" fill="none" xmlns="http://www.w3.org/2000/svg">
<path d="M2.89189 2.67406C3 2.9949 3.32433 3.36921 3.7027 3.42268C4.13514 3.47615 4.56757 3.42268 4.94595 3.20879C5.37838 3.26226 5.86487 2.9949 6.02703 2.67406C6.2973 2.19281 6.18919 1.71156 5.86487 1.33725C5.5946 1.01641 5.27027 0.855995 4.94595 0.642104C4.72973 0.481686 4.51352 0.321268 4.24324 0.16085C3.86487 -0.106513 3.32433 0.000432179 3 0.267795C2.62162 0.535159 2.45946 0.96294 2.56757 1.44419C2.67568 1.8185 2.78379 2.24628 2.89189 2.67406Z" fill="#FDF571"/>
<path d="M4.02703 23.2606C5.21622 23.2071 6.18919 22.2981 6.51352 21.1752C6.89189 19.8384 5.91892 18.8224 4.83784 18.555L4.78379 18.5015C2.78379 17.3786 0.621626 19.6779 1.54054 21.6564C1.91892 22.6189 2.94595 23.3141 4.02703 23.2606Z" fill="#FDF571"/>
<path d="M5.27027 35.8267C5.21622 35.5593 5.05405 35.2919 4.67568 35.2919C3.91892 35.2919 3.43243 35.9336 3.43243 36.6287C3.43243 36.6822 3.43243 36.7357 3.43243 36.7892C3.37838 36.9496 3.37838 37.1635 3.43243 37.3239C3.43243 37.3774 3.48649 37.4843 3.54054 37.5913C3.59459 37.7517 3.64865 37.8586 3.81081 37.9656C4.2973 38.4468 5.05405 38.3399 5.43243 37.8051C6.02703 37.2169 5.97297 36.201 5.27027 35.8267Z" fill="#FDF571"/>
<path d="M3.54054 37.5913C3.54054 37.5913 3.54054 37.5378 3.54054 37.5913C3.48649 37.5378 3.48649 37.4843 3.48649 37.4308C3.54054 37.5378 3.54054 37.5378 3.54054 37.5913Z" fill="#FDF571"/>
<path d="M3.5946 51.1733C3.32432 51.2802 3.16216 51.4941 3 51.708C2.67568 52.1893 2.67568 52.7775 2.89189 53.3122C3.10811 53.74 3.81081 53.9539 4.18919 53.633C4.45946 53.4191 4.89189 53.2053 5.10811 52.9379C5.43243 52.5101 5.54054 52.0289 5.21622 51.6011C5.10811 51.4941 5 51.3872 4.83784 51.3337C4.72973 51.2268 4.62162 51.1733 4.51351 51.1733C4.45946 51.1733 4.45946 51.1733 4.45946 51.1733C4.35135 51.1198 4.24324 51.1198 4.13514 51.1198C3.91892 51.0129 3.75676 51.0663 3.5946 51.1733Z" fill="#FDF571"/>
<path d="M6.35135 66.3061C6.08108 65.9852 5.75676 65.7714 5.43243 65.6644C5.37838 65.6109 5.32432 65.504 5.27027 65.504C3.81081 64.5415 1.59459 65.4505 1.10811 67.1082C0.513513 68.9797 2.24324 70.7978 4.13513 70.7978C6.35135 70.7978 7.91892 68.0707 6.35135 66.3061Z" fill="#FDF571"/>
<path d="M3.97297 83.5777C3.97297 83.5243 3.97297 83.5243 4.02703 83.4708C4.35135 82.5083 2.94595 82.1874 2.56757 83.0965C2.24324 83.8986 1.81081 84.6472 1.43243 85.4493C0.999999 86.3583 1.86486 87.3208 2.83784 86.8396C3.27027 86.6257 3.75676 86.4653 4.18919 86.1979C4.78378 85.8236 4.78378 85.2354 4.78378 84.6472C4.78378 84.1659 4.45946 83.7381 3.97297 83.5777Z" fill="#FDF571"/>
</svg>
