<svg width="22" height="126" viewBox="0 0 22 126" fill="none" xmlns="http://www.w3.org/2000/svg">
<path d="M22.017 5C23.2366 13.0925 24.4562 21.2537 23.4398 29.3462C22.4235 37.4387 18.968 45.5998 12.4636 50.4005C9.41458 52.6637 5.68806 54.1725 3.38439 57.19C-1.15519 63.088 1.55501 71.6606 5.14602 78.1757C8.73703 84.6909 13.3444 91.6176 11.9215 98.9557C10.8374 104.785 6.16234 109.654 6.16234 115.552C6.2301 119.804 9.00805 123.851 12.9378 125.359C16.8676 126.868 21.6105 125.634 24.3884 122.479C26.2856 120.284 27.2341 117.473 28.0472 114.729C32.7223 99.1615 35.6357 82.9764 36.7198 66.7227C37.6684 52.938 36.6521 37.4387 26.6243 28.0432" fill="#FDF571"/>
<path d="M34.6419 1C34.5732 9.18657 34.4357 17.5107 32.168 25.3533C29.9002 33.1959 25.0897 40.6945 17.8053 44.4095C14.3692 46.1293 10.4521 47.0237 7.63458 49.6379C2.13691 54.7287 3.44261 63.672 6.054 70.689C8.59668 77.7061 12.0327 85.3423 9.49005 92.3594C7.49714 97.9317 1.99947 101.991 1.1061 107.838C0.487608 112.035 2.61796 116.506 6.32889 118.639C10.0398 120.772 14.9877 120.359 18.2176 117.676C20.4854 115.818 21.8598 113.204 23.0968 110.59C30.2438 95.9367 35.8102 80.3891 39.5211 64.4975C42.6823 50.945 44.1254 35.3974 35.6727 24.459" stroke="#3A3A3A" stroke-miterlimit="10"/>
</svg>
