<svg width="21" height="21" viewBox="0 0 21 21" fill="none" xmlns="http://www.w3.org/2000/svg">
<path d="M14.6053 11.2345L21 10.3733L14.8421 9.59042L20.2895 6.57629L14.0132 8.10292L17.9211 3.01413L12.9868 6.77201L14.6842 0.86118L11.3684 6.34142L10.5 9.14396e-08L9.67105 6.10655L6.67105 0.704602L8.21053 6.92859L3.07895 3.01413L6.86842 7.94635L0.907895 6.22399L6.43421 9.55127L-9.03363e-08 10.3733L6.19737 11.1953L0.75 14.2095L7.02632 12.6437L3.07895 17.7325L8.05263 13.9746L6.31579 19.9246L9.67105 14.4443L10.5 20.7858L11.3289 14.6792L14.3684 20.0812L12.7895 13.8572L17.9211 17.7325L14.1316 12.8394L20.1316 14.5226L14.6053 11.2345Z" fill="#FDF571"/>
</svg>
