<svg display="none" xmlns="http://www.w3.org/2000/svg">
    
    <symbol id="instagram" viewBox="0 0 20 20">
        <g>
            <path d="M11.9141 9.99988C11.9141 11.0585 11.0586 11.9139 10 11.9139C8.94141 11.9139 8.08594 11.0585 8.08594 9.99988C8.08594 8.94128 8.94141 8.08582 10 8.08582C11.0586 8.08582 11.9141 8.94128 11.9141 9.99988Z" fill="#FDF571"/>
            <path d="M14.4765 6.61316C14.3828 6.36316 14.2383 6.1366 14.0469 5.953C13.8633 5.7616 13.6367 5.61707 13.3867 5.52332C13.1836 5.44519 12.8789 5.35144 12.3203 5.3241C11.7148 5.29675 11.5312 5.28894 9.99998 5.28894C8.46483 5.28894 8.28514 5.29285 7.67967 5.3241C7.12108 5.35144 6.81639 5.44519 6.61327 5.52332C6.36327 5.61707 6.1367 5.7616 5.95311 5.953C5.7617 6.1366 5.61717 6.36316 5.52342 6.61316C5.4453 6.81628 5.35155 7.12097 5.3242 7.67957C5.29686 8.28503 5.28905 8.46472 5.28905 9.99988C5.28905 11.5311 5.29686 11.7147 5.3242 12.3202C5.35155 12.8788 5.44139 13.1835 5.52342 13.3866C5.61717 13.6366 5.7617 13.8632 5.95311 14.0468C6.1367 14.2382 6.36327 14.3827 6.61327 14.4764C6.81639 14.5546 7.12108 14.6483 7.67967 14.6757C8.28514 14.703 8.46483 14.7108 9.99998 14.7108C11.5351 14.7108 11.7148 14.7069 12.3203 14.6757C12.8789 14.6483 13.1836 14.5585 13.3867 14.4764C13.8867 14.285 14.2851 13.8866 14.4765 13.3866C14.5547 13.1835 14.6484 12.8788 14.6758 12.3202C14.7031 11.7147 14.7109 11.5311 14.7109 9.99988C14.7109 8.46472 14.707 8.28503 14.6758 7.67957C14.6484 7.12097 14.5547 6.81628 14.4765 6.61316ZM9.99998 12.9491C8.37108 12.9491 7.05077 11.6288 7.05077 9.99988C7.05077 8.37097 8.37108 7.05066 9.99998 7.05066C11.6289 7.05066 12.9492 8.37097 12.9492 9.99988C12.9492 11.6288 11.6289 12.9491 9.99998 12.9491ZM13.0664 7.62488C12.6875 7.62488 12.3789 7.31628 12.3789 6.93738C12.3789 6.55847 12.6875 6.24988 13.0664 6.24988C13.4453 6.24988 13.7539 6.55847 13.7539 6.93738C13.7539 7.31628 13.4453 7.62488 13.0664 7.62488Z" fill="#FDF571"/>
            <path d="M10 -0.00012207C4.47656 -0.00012207 0 4.47644 0 9.99988C0 15.5233 4.47656 19.9999 10 19.9999C15.5234 19.9999 20 15.5233 20 9.99988C20 4.47644 15.5234 -0.00012207 10 -0.00012207ZM15.707 12.3671C15.6797 12.9764 15.582 13.3944 15.4414 13.7616C15.1445 14.5311 14.5352 15.1444 13.7617 15.4413C13.3984 15.5819 12.9805 15.6796 12.3672 15.7069C11.7539 15.7343 11.5586 15.7421 10 15.7421C8.44141 15.7421 8.24609 15.7343 7.63281 15.7069C7.02344 15.6796 6.60547 15.5819 6.23828 15.4413C5.85547 15.2968 5.50781 15.0702 5.22266 14.7772C4.92969 14.4921 4.70312 14.1444 4.55859 13.7616C4.41797 13.3983 4.32031 12.9803 4.29297 12.3671C4.26562 11.7538 4.25781 11.5585 4.25781 9.99988C4.25781 8.44128 4.26562 8.24597 4.29297 7.63269C4.32031 7.02331 4.41797 6.60535 4.55859 6.23816C4.70312 5.85535 4.92969 5.50769 5.22266 5.22253C5.50781 4.92957 5.85547 4.703 6.23828 4.55847C6.60547 4.41785 7.01953 4.32019 7.63281 4.29285C8.24609 4.2655 8.44141 4.25769 10 4.25769C11.5586 4.25769 11.7539 4.2655 12.3672 4.29285C12.9766 4.32019 13.3945 4.41785 13.7617 4.55847C14.1445 4.703 14.4922 4.92957 14.7773 5.22253C15.0703 5.50769 15.2969 5.85535 15.4414 6.23816C15.582 6.60535 15.6797 7.01941 15.707 7.63269C15.7344 8.24597 15.7422 8.44128 15.7422 9.99988C15.7422 11.5585 15.7344 11.7538 15.707 12.3671Z" fill="#FDF571"/>
        </g>
    </symbol>
</svg>