<svg width="18" height="153" viewBox="0 0 18 153" fill="none" xmlns="http://www.w3.org/2000/svg">
<path d="M-20.5974 10.737C-21.0892 20.2658 -21.5733 29.8742 -19.5136 39.1587C-17.454 48.4431 -12.6034 57.5405 -4.64738 62.4032C-0.916567 64.6975 3.5035 66.0419 6.46775 69.2935C12.3037 75.6449 10.1644 85.894 6.79129 93.8507C3.41816 101.807 -1.06893 110.353 1.37071 118.717C3.25599 125.366 9.13215 130.509 9.78803 137.356C10.1836 142.3 7.46364 147.302 3.1472 149.483C-1.16924 151.664 -6.71852 150.749 -10.2392 147.39C-12.6481 145.05 -14.0432 141.889 -15.276 138.793C-22.3419 121.229 -27.4663 102.757 -30.5108 84.0046C-33.1261 68.1041 -33.69 49.9982 -23.2923 37.9939" fill="#FFBCA7"/>
<path d="M-34.6038 4.67695C-33.615 14.1741 -32.5325 23.8235 -29.0726 32.681C-25.6127 41.5384 -19.2897 49.7186 -10.5644 53.2355C-6.45231 54.8567 -1.88311 55.4669 1.62268 58.1941C8.46212 63.5037 7.96675 74.0296 5.76725 82.4619C3.64617 90.8867 0.574529 100.128 4.25627 107.997C7.15003 114.249 13.8747 118.36 15.5444 125.052C16.7168 129.856 14.7832 135.281 10.7858 138.162C6.78851 141.044 1.09662 141.105 -2.88731 138.343C-5.68162 136.435 -7.54066 133.55 -9.24287 130.65C-19.0277 114.418 -27.1084 96.976 -33.1101 78.9313C-38.2244 63.5422 -41.6001 45.6491 -33.1713 32.0257" stroke="#301F35" stroke-miterlimit="10"/>
</svg>
