<svg width="32" height="31" viewBox="0 0 32 31" fill="none" xmlns="http://www.w3.org/2000/svg">
<path d="M7.64342 5.64658C5.01827 6.56601 3.10876 8.98599 2.39977 11.6496C1.13157 16.5922 3.96376 22.0074 8.34508 24.5975C12.7264 27.1877 18.307 27.2967 23.2152 25.831C24.937 25.3091 26.6631 24.5668 27.8409 23.1877C29.5417 21.1679 29.6193 18.2656 29.0291 15.6979C27.8703 10.5255 26.0907 6.92824 21.0625 5.10577C16.0421 3.31255 12.5733 4.14377 7.64342 5.64658Z" fill="#F78C6B"/>
<path d="M14.1253 17.1118C14.1253 16.5571 14.248 16.0984 14.4933 15.7358C14.7493 15.3731 15.1173 14.9731 15.5973 14.5358C15.9493 14.2158 16.2053 13.9491 16.3653 13.7358C16.536 13.5118 16.6213 13.2611 16.6213 12.9838C16.6213 12.5891 16.4613 12.2798 16.1413 12.0558C15.832 11.8211 15.416 11.7038 14.8933 11.7038C14.392 11.7038 13.944 11.8104 13.5493 12.0238C13.1653 12.2264 12.84 12.5144 12.5733 12.8878L10.6373 11.7518C11.0853 11.0691 11.688 10.5411 12.4453 10.1678C13.2133 9.79442 14.12 9.60776 15.1653 9.60776C16.392 9.60776 17.3733 9.86909 18.1093 10.3918C18.856 10.9144 19.2293 11.6398 19.2293 12.5678C19.2293 13.0051 19.1547 13.3891 19.0053 13.7198C18.8667 14.0504 18.6907 14.3331 18.4773 14.5678C18.2747 14.7918 18.008 15.0531 17.6773 15.3518C17.2827 15.7038 16.9947 16.0024 16.8133 16.2478C16.632 16.4824 16.5413 16.7704 16.5413 17.1118H14.1253ZM15.3413 21.1278C14.904 21.1278 14.536 20.9891 14.2373 20.7118C13.9493 20.4238 13.8053 20.0771 13.8053 19.6718C13.8053 19.2664 13.9493 18.9304 14.2373 18.6638C14.5253 18.3864 14.8933 18.2478 15.3413 18.2478C15.7893 18.2478 16.1573 18.3864 16.4453 18.6638C16.7333 18.9304 16.8773 19.2664 16.8773 19.6718C16.8773 20.0771 16.728 20.4238 16.4293 20.7118C16.1413 20.9891 15.7787 21.1278 15.3413 21.1278Z" fill="white"/>
</svg>
