<svg width="37" height="152" viewBox="0 0 37 152" fill="none" xmlns="http://www.w3.org/2000/svg">
<path d="M38.5731 9.83664C39.0649 19.3654 39.549 28.9739 37.4893 38.2583C35.4297 47.5427 30.5791 56.6401 22.6231 61.5028C18.8923 63.7971 14.4722 65.1415 11.5079 68.3931C5.67201 74.7446 7.81126 84.9936 11.1844 92.9503C14.5575 100.907 19.0446 109.452 16.605 117.817C14.7197 124.466 8.84354 129.608 8.18766 136.456C7.79213 141.4 10.512 146.401 14.8285 148.582C19.1449 150.764 24.6942 149.849 28.2149 146.49C30.6238 144.149 32.0188 140.988 33.2517 137.892C40.3176 120.329 45.442 101.856 48.4865 83.1042C51.1018 67.2037 51.6657 49.0978 41.268 37.0935" fill="#FFBCA7"/>
<path d="M52.5795 3.77656C51.5907 13.2737 50.5082 22.9231 47.0483 31.7806C43.5884 40.638 37.2654 48.8182 28.5401 52.3351C24.428 53.9563 19.8588 54.5665 16.353 57.2937C9.51357 62.6033 10.0089 73.1292 12.2084 81.5615C14.3295 89.9863 17.4012 99.2275 13.7194 107.096C10.8257 113.348 4.10098 117.46 2.43129 124.151C1.25887 128.956 3.19251 134.38 7.18985 137.262C11.1872 140.143 16.8791 140.205 20.863 137.443C23.6573 135.534 25.5164 132.649 27.2186 129.75C37.0034 113.518 45.0841 96.0756 51.0858 78.031C56.2001 62.6418 59.5758 44.7487 51.147 31.1253" stroke="#301F35" stroke-miterlimit="10"/>
</svg>
