<svg width="26" height="150" viewBox="0 0 26 150" fill="none" xmlns="http://www.w3.org/2000/svg">
<path d="M26.2093 8.37024C27.6066 17.8088 29.0039 27.3274 27.8382 36.7658C26.6725 46.2043 22.7107 55.7224 15.2541 61.321C11.7588 63.9603 7.48696 65.7197 4.84598 69.2389C-0.358303 76.1174 2.74766 86.1161 6.86349 93.7152C10.9793 101.314 16.2601 109.393 14.6285 117.952C13.3853 124.751 8.02572 130.429 8.0252 137.308C8.10249 142.268 11.2865 146.987 15.7911 148.747C20.2958 150.507 25.7326 149.068 28.9173 145.389C31.0922 142.829 32.1798 139.55 33.1121 136.35C38.4725 118.194 41.8137 99.3169 43.0578 80.3601C44.1464 64.2827 42.9828 46.2055 31.4887 35.2464" fill="#FFBCA7"/>
<path d="M39.5746 1.00293C39.4951 10.5511 39.3368 20.2597 36.7365 29.4065C34.1362 38.5533 28.6213 47.2987 20.2707 51.6308C16.3318 53.6365 11.8415 54.6792 8.61152 57.7279C2.30903 63.665 3.80497 74.0959 6.79782 82.2803C9.71189 90.4646 13.65 99.3712 10.7347 107.555C8.44969 114.054 2.14729 118.788 1.1227 125.608C0.413345 130.502 2.85499 135.718 7.10867 138.205C11.3624 140.693 17.0342 140.212 20.7369 137.083C23.3367 134.917 24.9124 131.868 26.3306 128.819C34.5245 111.729 40.9067 93.5962 45.162 75.0619C48.7869 59.2555 50.4425 41.1221 40.7541 28.3637" stroke="#301F35" stroke-miterlimit="10"/>
</svg>
