<svg width="33" height="11" viewBox="0 0 33 11" fill="none" xmlns="http://www.w3.org/2000/svg">
<g clip-path="url(#clip0_5:61)">
<path d="M22.78 10.9301C21.69 10.9301 19.61 10.4301 18.04 7.52009C17.8478 7.16264 17.6742 6.7955 17.52 6.4201C16.94 4.9701 16.33 4.63009 16.24 4.63009C16.15 4.63009 15.53 4.92009 14.88 6.35009C14.714 6.73191 14.5236 7.10267 14.31 7.46009C12.65 10.3001 10.55 10.6901 9.45 10.6701C7.25 10.6701 5.34002 8.9801 4.19002 6.1501C4.08235 5.88295 3.9588 5.62249 3.82002 5.3701L3.75999 5.27009C3.32999 4.54009 2.97001 4.3801 2.90001 4.3701C2.34968 4.55708 1.74762 4.51777 1.22627 4.26085C0.704921 4.00392 0.306988 3.55043 0.12001 3.0001C-0.0669676 2.44978 -0.0276618 1.84772 0.229263 1.32637C0.486188 0.805015 0.939681 0.407067 1.49001 0.220089C1.97074 0.0633821 2.47448 -0.0109835 2.98 0.000103061C4.04 0.000103061 6.06 0.460096 7.61 3.1801C7.637 3.21784 7.66044 3.25801 7.68001 3.30009C7.89152 3.69636 8.08179 4.1036 8.25002 4.52009C8.83002 5.95009 9.45001 6.2901 9.53001 6.2901C9.61001 6.2901 10.03 6.11009 10.53 5.22009C10.6605 5.00079 10.7774 4.77371 10.88 4.5401C12.12 1.7801 14.1 0.210103 16.3 0.250103C18.5 0.290103 20.42 1.94009 21.56 4.77009C21.6559 5.0098 21.7661 5.24355 21.89 5.47009C22.35 6.34009 22.78 6.55009 22.84 6.55009C22.9 6.55009 23.55 6.2601 24.2 4.8201C24.3917 4.38266 24.6122 3.95839 24.86 3.55009C26.55 0.860091 28.57 0.490091 29.62 0.550091C30.1449 0.557373 30.6637 0.662502 31.15 0.860088C31.4278 0.958012 31.683 1.11098 31.9003 1.30983C32.1177 1.50867 32.2926 1.74931 32.4148 2.01735C32.5369 2.28538 32.6038 2.57533 32.6113 2.86979C32.6188 3.16426 32.5668 3.45721 32.4584 3.73112C32.3501 4.00503 32.1876 4.25426 31.9807 4.46391C31.7738 4.67356 31.5267 4.83931 31.2542 4.95124C30.9817 5.06318 30.6895 5.119 30.3949 5.11537C30.1004 5.11173 29.8096 5.04872 29.54 4.9301C29.48 4.9301 29.09 5.0901 28.59 5.9301C28.44 6.17263 28.3095 6.42677 28.2 6.69009C26.96 9.40009 24.98 10.9701 22.78 10.9301Z" fill="#FFBCA7"/>
</g>
<defs>
<clipPath id="clip0_5:61">
<rect width="32.55" height="10.93" fill="white"/>
</clipPath>
</defs>
</svg>
